<svg width="56" height="48" viewBox="0 0 56 48" fill="none" xmlns="http://www.w3.org/2000/svg">
<g id="OBJECTS" clip-path="url(#clip0_14_878)">
<path id="Vector" d="M46.8128 19.0651L43.7449 19.0651C42.8405 16.5183 41.2468 14.2726 39.1415 12.5781C37.0361 10.8837 34.5016 9.80691 31.8204 9.4678C29.1392 9.12871 26.4165 9.54058 23.9555 10.6575C21.4946 11.7745 19.392 13.5527 17.882 15.7941C17.6071 16.212 17.4508 16.6967 17.4298 17.1965C17.4087 17.6962 17.5238 18.1923 17.7626 18.6319C18.0013 19.0714 18.355 19.4378 18.7857 19.6922C19.2164 19.9465 19.7081 20.0791 20.2083 20.0759L23.9162 20.0759L23.9162 27.9244L20.2701 27.9244C19.7671 27.9222 19.273 28.0571 18.8409 28.3146C18.4088 28.5721 18.0551 28.9424 17.8177 29.3859C17.5803 29.8293 17.4683 30.3291 17.4936 30.8315C17.5189 31.3338 17.6807 31.8198 17.9614 32.2371C19.4816 34.4465 21.5811 36.1943 24.0295 37.2886C26.478 38.3829 29.1806 38.7813 31.8407 38.4402C34.5007 38.099 37.0153 37.0314 39.1083 35.3546C41.2014 33.6779 42.7919 31.4568 43.7052 28.9353L46.7951 28.9353C45.7207 32.5573 43.5046 35.7351 40.477 37.9951C37.4495 40.255 33.7726 41.476 29.9946 41.4761C20.4511 41.4761 7.89702 32.4004 1.60675 27.3108C1.10745 26.9039 0.705006 26.391 0.428616 25.8092C0.152226 25.2274 0.00881978 24.5913 0.00881979 23.9472C0.0088198 23.3031 0.152226 22.667 0.428616 22.0852C0.705006 21.5034 1.10745 20.9905 1.60675 20.5836C7.85288 15.494 20.3186 6.43598 30.0079 6.43598C33.7981 6.43999 37.4848 7.67306 40.5149 9.95014C43.5449 12.2272 45.7547 15.4255 46.8128 19.0651Z" fill="#FF5400"/>
<path id="Vector_2" d="M4.43189 22.1417C4.03744 22.2672 3.69312 22.5149 3.44872 22.8489C3.20432 23.183 3.07249 23.5861 3.07231 24.0001C3.07249 24.414 3.20432 24.8171 3.44872 25.1512C3.69312 25.4853 4.03744 25.733 4.43189 25.8585L7.21726 27.9243L47.4485 27.9243C48.7019 27.9245 49.951 27.7763 51.1697 27.4829C52.3665 27.1861 53.5216 26.7412 54.6083 26.1586C55.025 25.9699 55.3785 25.6651 55.6264 25.2807C55.8743 24.8963 56.0061 24.4486 56.0061 23.9912C56.0061 23.5338 55.8743 23.0861 55.6264 22.7017C55.3785 22.3173 55.025 22.0125 54.6083 21.8239C53.5216 21.2413 52.3665 20.7964 51.1697 20.4996C49.951 20.2062 48.7019 20.058 47.4485 20.0582L7.21726 20.0582L4.43189 22.1417Z" fill="#FF5400"/>
<path id="Vector_3" d="M41.7276 21.1619L26.5294 1.2449C26.2324 0.857424 25.8502 0.543569 25.4123 0.327692C24.9744 0.111814 24.4927 -0.000286308 24.0045 8.75267e-05L22.4816 8.75085e-05L28.9043 21.1619L41.7276 21.1619Z" fill="#FF5400"/>
<path id="Vector_4" d="M41.7276 26.8385L26.5294 46.7554C26.2324 47.1429 25.8502 47.4568 25.4123 47.6726C24.9744 47.8885 24.4927 48.0006 24.0045 48.0002L22.4816 48.0002L28.9043 26.8385L41.7276 26.8385Z" fill="#FF5400"/>
<path id="Vector_5" d="M25.1169 44.4202C25.1157 44.0662 25.254 43.7259 25.5019 43.4731C25.7497 43.2203 26.0872 43.0753 26.4412 43.0695L28.9043 43.0695C29.2626 43.0695 29.6061 43.2118 29.8594 43.4651C30.1128 43.7184 30.2551 44.062 30.2551 44.4202C30.2551 44.7785 30.1128 45.122 29.8594 45.3754C29.6061 45.6287 29.2626 45.771 28.9043 45.771L26.4412 45.771C26.0872 45.7652 25.7497 45.6202 25.5019 45.3674C25.254 45.1146 25.1157 44.7743 25.1169 44.4202Z" fill="#FF5400"/>
<path id="Vector_6" d="M25.1169 3.57991C25.1157 3.22587 25.254 2.8856 25.5019 2.63278C25.7497 2.37997 26.0872 2.23496 26.4412 2.22916L28.9043 2.22916C29.2626 2.22916 29.6061 2.37148 29.8594 2.6248C30.1128 2.87811 30.2551 3.22167 30.2551 3.57991C30.2551 3.93815 30.1128 4.28173 29.8594 4.53504C29.6061 4.78836 29.2626 4.93066 28.9043 4.93066L26.4412 4.93066C26.0872 4.92486 25.7497 4.77986 25.5019 4.52704C25.254 4.27423 25.1157 3.93396 25.1169 3.57991Z" fill="#FF5400"/>
<path id="Vector_7" d="M33.782 32.8771C33.7791 32.6979 33.8119 32.5199 33.8785 32.3534C33.945 32.187 34.044 32.0355 34.1698 31.9077C34.2955 31.7799 34.4454 31.6785 34.6107 31.6092C34.7761 31.5399 34.9535 31.5043 35.1328 31.5043L37.5915 31.5043C37.9497 31.5043 38.2933 31.6466 38.5466 31.8999C38.7999 32.1532 38.9423 32.4968 38.9423 32.8551C38.9423 33.2133 38.7999 33.5569 38.5466 33.8102C38.2933 34.0635 37.9497 34.2058 37.5915 34.2058L35.1328 34.2058C34.7783 34.2059 34.4381 34.0666 34.1854 33.818C33.9327 33.5695 33.7878 33.2315 33.782 32.8771Z" fill="#FF5400"/>
<path id="Vector_8" d="M33.782 15.1231C33.782 14.7649 33.9243 14.4213 34.1777 14.168C34.431 13.9147 34.7745 13.7724 35.1328 13.7724L37.5915 13.7724C37.9497 13.7724 38.2933 13.9147 38.5466 14.168C38.7999 14.4213 38.9423 14.7649 38.9423 15.1231C38.9423 15.4814 38.7999 15.8249 38.5466 16.0782C38.2933 16.3316 37.9497 16.4739 37.5915 16.4739L35.1328 16.4739C34.7745 16.4739 34.431 16.3316 34.1777 16.0782C33.9243 15.8249 33.782 15.4814 33.782 15.1231Z" fill="#FF5400"/>
</g>
<defs>
<clipPath id="clip0_14_878">
<rect width="48.0002" height="56.0076" fill="white" transform="matrix(1.19249e-08 -1 -1 -1.19249e-08 56.0076 48.0002)"/>
</clipPath>
</defs>
</svg>
